<svg width="1000" height="1100" viewBox="0 0 1000 1100" fill="none" xmlns="http://www.w3.org/2000/svg">
<path d="M483.5 57L709.966 416.25H514.5L390 196L483.5 57Z" fill="#A5CE7D"/>
<path d="M483.5 57L709.966 416.25H514.5L390 196L483.5 57Z" fill="black"/>
<path d="M800.5 154L964.612 416.5H636.388L800.5 154Z" fill="black"/>
<path d="M261.5 0L487.966 416.25H35.0344L261.5 0Z" fill="white"/>
<path d="M261.5 0L487.966 416.25H35.0344L261.5 0Z" fill="black"/>
<mask id="mask0_108_26" style="mask-type:alpha" maskUnits="userSpaceOnUse" x="0" y="100" width="1000" height="1000">
<circle cx="500" cy="600" r="500" fill="#8E8E8E"/>
</mask>
<g mask="url(#mask0_108_26)">
<path d="M135 951.353C135 915.706 934.5 373 978 416.5C1021.5 460 1098.83 533.432 1098.83 533.432L233.844 1101.79C233.844 1101.79 135 987 135 951.353Z" fill="black"/>
<path d="M-506.734 494.791L480.923 621.237L370.5 696.5L-517 561.932L-506.734 494.791Z" fill="black"/>
<path d="M-109.555 675.333L321 736L-64.4999 1035.46L-233 791.097L-109.555 675.333Z" fill="black"/>
<rect x="288" y="1132.35" width="1035" height="180" transform="rotate(-33.3076 288 1132.35)" fill="black"/>
</g>
<path d="M552.547 436.059C549.763 434.859 546.388 437.179 546.535 440.11C547.126 453.559 540.008 467.371 526.89 476.885L510.336 488.89C488.403 504.798 481.785 531.738 495.562 549.038C496.471 550.18 497.508 551.153 498.536 552.158C505.798 535.126 519.813 514.972 546.836 495.374C548.657 494.053 551.082 494.148 552.226 495.584C553.37 497.02 552.816 499.275 550.995 500.596C498.976 538.323 496.946 579.469 499.588 592.46C500.34 596.111 504.372 597.976 508.615 596.623C512.893 595.272 515.714 591.191 515.016 587.527C514.859 586.714 513.115 576.573 518.119 561.951C530.528 564.253 548.72 561.847 564.342 548.303C595.346 522.882 599.912 483.321 577.506 455.186C570.981 446.993 561.989 440.127 552.547 436.059V436.059Z" fill="black"/>
<path d="M438.853 538.766C437.425 539.043 437.063 540.53 438.18 541.391C443.273 545.36 445.75 551.22 444.527 557.154L442.984 564.641C440.939 574.561 448.36 584.314 459.552 586.415C460.291 586.554 461.014 586.612 461.745 586.681C458.151 579.805 455.831 570.416 458.35 558.193C458.52 557.37 459.419 556.839 460.348 557.013C461.277 557.188 461.899 558.004 461.729 558.828C456.879 582.356 471.093 595.386 476.751 598.743C478.345 599.683 480.459 599.322 481.481 597.929C482.515 596.529 482.04 594.632 480.461 593.674C480.11 593.463 475.807 590.769 472.282 585.15C477.542 582.988 483.154 578.053 483.807 570.311C485.632 555.392 472.897 542.26 454.695 538.843C449.395 537.848 443.696 537.828 438.853 538.766V538.766Z" fill="black"/>
<path d="M438.461 460.029L436.834 466.638C429 498.45 442.482 516.722 463.5 521.436L469.532 522.788C471.31 512.685 469.819 505.994 463.818 497.095C460.866 492.719 461.69 490.76 463.283 492.348C474.258 503.283 478.018 515.577 474.036 532.969L473.744 534.194L480.087 535.617C481.197 531.113 481.835 526.943 482.027 523.038C483.809 518.926 485.606 513.206 487.411 505.877C491.906 487.626 481.35 469.648 463.833 465.72C457.49 464.297 450.334 466.179 438.461 460.029Z" fill="black"/>
<line x1="216.339" y1="46.2924" x2="266.339" y2="118.292" stroke="white" stroke-width="13"/>
<line x1="331.892" y1="69.5215" x2="257.43" y2="115.775" stroke="white" stroke-width="13"/>
<path d="M483 68L516 119H450L483 68Z" fill="white"/>
<path d="M483 78L516 131H450L483 78Z" fill="black"/>
<rect x="773.681" y="186.801" width="60" height="6" transform="rotate(-27.9213 773.681 186.801)" fill="white"/>
<rect x="778.503" y="185" width="69" height="6" transform="rotate(7.2174 778.503 185)" fill="white"/>
<rect x="764.755" y="203.583" width="82" height="6" transform="rotate(-9.72575 764.755 203.583)" fill="white"/>
</svg>
